<svg xmlns="http://www.w3.org/2000/svg" viewBox="0 0 128 128" role="img" aria-labelledby="title desc">
  <title id="title">Real Estate DX Mockup logo</title>
  <desc id="desc">A survey plot, building grid, and DX letters for a real estate valuation dashboard.</desc>
  <defs>
    <linearGradient id="base" x1="16" x2="112" y1="16" y2="112" gradientUnits="userSpaceOnUse">
      <stop offset="0" stop-color="#152527" />
      <stop offset="0.62" stop-color="#21423f" />
      <stop offset="1" stop-color="#2f645c" />
    </linearGradient>
    <linearGradient id="plot" x1="38" x2="90" y1="90" y2="38" gradientUnits="userSpaceOnUse">
      <stop offset="0" stop-color="#d7b35a" />
      <stop offset="1" stop-color="#f7d77f" />
    </linearGradient>
    <filter id="shadow" x="-20%" y="-20%" width="140%" height="140%">
      <feDropShadow dx="0" dy="8" stdDeviation="7" flood-color="#111f20" flood-opacity="0.28" />
    </filter>
  </defs>
  <rect width="128" height="128" rx="24" fill="url(#base)" />
  <path d="M19 91 45 33l33 12 31 49-39 16-51-19Z" fill="#0f1d1f" opacity="0.35" />
  <path d="M24 86 48 30l31 12 25 44-36 15-44-15Z" fill="url(#plot)" filter="url(#shadow)" />
  <path d="M36 80 55 39l22 9 17 31-27 11-31-10Z" fill="#203735" opacity="0.16" />
  <path d="M52 34 43 83M79 43 67 98M33 67l57 19M41 48l44 15" fill="none" stroke="#18302d" stroke-linecap="round" stroke-width="4" opacity="0.72" />
  <path d="M61 45h29a8 8 0 0 1 8 8v39H61V45Z" fill="#f9fbf4" />
  <path d="M69 55h7v7h-7v-7Zm14 0h7v7h-7v-7ZM69 70h7v7h-7v-7Zm14 0h7v7h-7v-7Z" fill="#2f645c" />
  <path d="M74 92V80h11v12" fill="#d7b35a" />
  <path d="M57 92h45" stroke="#18302d" stroke-linecap="round" stroke-width="5" />
  <path d="M28 35c0-8 6-14 14-14s14 6 14 14c0 11-14 25-14 25S28 46 28 35Z" fill="#c9572b" stroke="#fff7e3" stroke-width="4" />
  <circle cx="42" cy="35" r="5" fill="#fff7e3" />
  <path d="M31 103h20v6H31v-6Zm26 0h39v6H57v-6Z" fill="#fff7e3" opacity="0.92" />
  <path d="M34 101 45 86h9l-11 15h-9Zm28-15h8v15h-8V86Zm10 15 11-15h9l-11 15h-9Z" fill="#fff7e3" />
</svg>
