<?xml version="1.0" encoding="UTF-8"?><svg id="_レイヤー_2" xmlns="http://www.w3.org/2000/svg" viewBox="0 0 255 51"><defs><style>.cls-1{fill:#002870;}</style></defs><g id="_レイアウト"><path class="cls-1" d="M33.19,1.33c-1.2,1.43-2.81,3.11-4,4.37-.34.37-.49.54-.49.78,0,.23.12.37.44.69,1.69,1.65,3.34,3.4,4.77,5.12l-1.44,1.29c-1.21-1.7-2.81-3.52-4.86-5.56-.6-.61-.83-1.07-.83-1.52,0-.54.17-.92.57-1.33,2.04-2.1,3.73-4.06,4.31-5.09l1.53,1.26Z"/><path class="cls-1" d="M50.27,9.24c0,2.37-2.27,4.12-6.27,4.29-.14-.31-.6-1.03-1.16-1.52,3.27,0,5.69-.98,5.69-2.88,0-1.13-.86-1.69-2.07-1.69-1.82,0-4,1.2-4.95,2.56l-1.56-.31c.25-1.67.77-4.4.98-5.64.03-.2.06-.46.09-.72l1.87.38c-.06.12-.15.32-.2.49-.2.7-.54,2.07-.81,3.45,1.3-1.06,3.07-1.68,4.58-1.68,2.31,0,3.82,1.38,3.82,3.26ZM46.99,3.08c-1.24-.14-3.85-.83-5.32-1.49l.58-1.59c1.35.66,3.56,1.26,5.17,1.53l-.43,1.55Z"/><path class="cls-1" d="M65.66,10.1c-1.06,1.33-3.31,3.13-5.89,3.13-2.41,0-3.83-1.23-3.83-3.74,0-1.7.31-7.03.31-7.86,0-.21,0-.57-.02-.83l1.93.23c-.08.34-.12.75-.15,1.18-.11,1.56-.37,5.62-.37,7.02,0,1.75.83,2.27,2.13,2.27,2.07,0,4.05-1.68,4.95-3,.26.54.77,1.29.94,1.61Z"/><path class="cls-1" d="M80.81,6.71c-1.2.28-2.52.67-3.7,1.13.03.52.03,1.09.03,1.7,0,.29.02.57.02,1l-1.53.05c.02-.37.02-1.44.02-1.73v-.34c-1.18.63-1.98,1.35-1.98,2.11s.87,1.29,2.59,1.29c1.49,0,2.65-.2,3.74-.55l.17,1.76c-1.46.28-2.59.35-3.77.35-2.53,0-4.37-.86-4.37-2.7,0-1.58,1.56-2.79,3.47-3.72-.2-.72-.58-1.07-1.32-1.07-1.21,0-2.32,1.43-3.74,3.28l-1.23-1.36c1.21-1.09,2.74-2.79,3.77-4.5-1.23-.02-2.15-.08-2.65-.15v-1.67c.58.14,1.9.31,3.25.31h.15c.17-.41.29-.83.35-1.23.03-.2.06-.37.05-.54l1.89.14c-.05.12-.14.32-.15.41-.09.38-.23.77-.38,1.16,1.24-.06,2.55-.17,3.4-.35l.14,1.55c-.9.2-2.85.31-4.31.35-.32.52-.67,1.06-1.06,1.59.34-.14.69-.21,1.06-.21,1.32,0,1.92.61,2.21,1.65,1.2-.49,2.39-.89,3.34-1.21.32-.09.61-.21.84-.34l.67,1.67c-.32.03-.64.08-.97.17Z"/><path class="cls-1" d="M90.17,10.83c3.1.02,6.59-1,6.59-4,0-1.47-.9-2.45-2.85-2.45-2.1,0-5.58,1.26-7.6,1.95l-.66-1.81c1.96-.37,6.01-1.73,8.51-1.73,2.67,0,4.35,1.69,4.35,4.12,0,3.71-3.22,5.36-7.43,5.61-.23-.57-.54-1.07-.91-1.68Z"/><path class="cls-1" d="M110.22,1.33c-1.2,1.43-2.81,3.11-4,4.37-.34.37-.49.54-.49.78,0,.23.12.37.45.69,1.69,1.65,3.34,3.4,4.77,5.12l-1.44,1.29c-1.21-1.7-2.81-3.52-4.86-5.56-.6-.61-.83-1.07-.83-1.52,0-.54.17-.92.57-1.33,2.04-2.1,3.73-4.06,4.31-5.09l1.53,1.26Z"/><path class="cls-1" d="M119.1,9.15l-1.81.23c-.2-.89-.34-1.96-.34-3.88,0-.9.31-3.57.55-4.95l1.78.31c-.38,1.24-.78,3.66-.78,4.78,0,.49.02.87.03,1.21.25-.87.55-1.82.98-2.68l1.01.75c-.41.74-1.3,2.93-1.43,4.23ZM124.88,5.99c0,3.6-1.3,6.21-4.48,7.72-.37-.35-.9-.8-1.52-1.23,3.46-1.33,4.32-3.54,4.32-6.76,0-1.35-.17-3.59-.46-5.07l1.69.06c.23,1.18.44,3.94.44,5.27Z"/><path class="cls-1" d="M132.2,13.76c-.69-1.06-1.9-2.33-2.96-3.08l1-1.09c1.13.63,2.56,2.04,3.23,3.03l-1.27,1.13Z"/><path class="cls-1" d="M151.72,7.97c-.66-.8-1.29-1.89-1.82-3.02.15.89.26,1.81.26,2.54,0,2.82-1.78,5.78-5.21,5.78-2.45,0-4.08-1.9-4.08-4.38,0-2.16,1.12-4.2,2.39-5.73-.97.29-1.98.52-2.67.58l-.28-1.79c1.67-.08,3.37-.31,4.32-.58.15-.05.23-.12.31-.21l1.21,1.24c-2.44,2.04-3.65,4.44-3.65,6.28,0,1.64.83,2.93,2.45,2.93,2.42,0,3.76-2.33,3.76-5.09,0-1.56-.25-3.59-.69-4.67l1.6-.57c.72,1.99,1.76,3.86,3.16,5.18l-1.06,1.52Z"/><path class="cls-1" d="M166.48,12.67c-.97.26-2.67.52-4.45.52-3.46,0-5.04-1.32-5.04-3.28s1.47-3.26,3.6-4.32c-.34-1.52-1.01-3.57-1.66-4.86l1.84-.6c.45,1.2,1.06,3.26,1.38,4.75.84-.32,1.75-.63,2.67-.9.31-.11.68-.21.87-.32l.57,1.73c-.25.05-.55.11-.89.2-3.22.84-6.64,2.19-6.64,4.14,0,1.12,1,1.76,3.16,1.76,1.78,0,3.65-.37,4.43-.66l.15,1.84Z"/><path class="cls-1" d="M182.67,6.71c-1.2.28-2.51.67-3.69,1.13.03.52.03,1.09.03,1.7,0,.29.01.57.01,1l-1.53.05c.01-.37.01-1.44.01-1.73v-.34c-1.18.63-1.98,1.35-1.98,2.11s.87,1.29,2.59,1.29c1.49,0,2.65-.2,3.74-.55l.17,1.76c-1.46.28-2.59.35-3.77.35-2.53,0-4.37-.86-4.37-2.7,0-1.58,1.56-2.79,3.46-3.72-.2-.72-.58-1.07-1.32-1.07-1.21,0-2.32,1.43-3.74,3.28l-1.23-1.36c1.21-1.09,2.74-2.79,3.77-4.5-1.23-.02-2.15-.08-2.65-.15v-1.67c.58.14,1.9.31,3.25.31h.15c.17-.41.29-.83.35-1.23.03-.2.06-.37.04-.54l1.89.14c-.04.12-.14.32-.15.41-.09.38-.23.77-.38,1.16,1.24-.06,2.54-.17,3.4-.35l.14,1.55c-.91.2-2.85.31-4.31.35-.32.52-.67,1.06-1.06,1.59.34-.14.69-.21,1.06-.21,1.32,0,1.92.61,2.21,1.65,1.2-.49,2.39-.89,3.34-1.21.32-.09.61-.21.84-.34l.67,1.67c-.32.03-.64.08-.97.17Z"/><path class="cls-1" d="M192.03,10.83c3.1.02,6.59-1,6.59-4,0-1.47-.9-2.45-2.85-2.45-2.1,0-5.58,1.26-7.6,1.95l-.66-1.81c1.96-.37,6.01-1.73,8.51-1.73,2.67,0,4.35,1.69,4.35,4.12,0,3.71-3.22,5.36-7.43,5.61-.23-.57-.54-1.07-.9-1.68Z"/><path class="cls-1" d="M211.93,1.33c-1.19,1.43-2.81,3.11-4,4.37-.34.37-.49.54-.49.78,0,.23.12.37.45.69,1.69,1.65,3.34,3.4,4.77,5.12l-1.44,1.29c-1.21-1.7-2.8-3.52-4.86-5.56-.6-.61-.83-1.07-.83-1.52,0-.54.17-.92.57-1.33,2.04-2.1,3.73-4.06,4.31-5.09l1.53,1.26Z"/><path class="cls-1" d="M228.23,8.99c0,2.88-2.55,4.24-5.21,4.24-1.79,0-3.4-.89-3.4-2.39,0-1.15.95-2.01,2.28-2.01,1.89,0,2.99,1.03,3.16,2.47.87-.43,1.47-1.18,1.47-2.33,0-1.44-.9-2.21-2.59-2.21-1.87,0-3.62.72-5.26,2.6l-1.23-1.19c1.43-1.12,4.43-4.03,6.23-5.79-1.44.21-3.19.41-4.49.48l-.24-1.67c1.24.09,4.98-.2,6.42-.43.06-.02.17-.06.24-.11l1.15,1.12c-.12.05-.31.15-.41.21-.95.75-2.77,2.37-4.43,3.95.67-.32,1.43-.49,2.27-.49,2.32,0,4.05,1.27,4.05,3.54ZM223.47,11.72c-.06-1.03-.64-1.56-1.44-1.56-.51,0-.89.31-.89.69,0,.55.64.9,1.67.9.21,0,.44-.02.66-.03Z"/><path class="cls-1" d="M4.37,37.42h.38c2.62-.02,4.27-.16,4.94-.42,1.59-.57,2.38-1.79,2.38-3.65s-.72-3.09-2.14-3.63c-.77-.32-2.37-.48-4.79-.51h-.39l-.38-.03v8.24ZM4.37,40.75v9.77H0v-24.61h7.13c2.91,0,5.11.52,6.6,1.54,2.02,1.37,3.03,3.31,3.03,5.83s-1.05,4.62-3.15,6.07c-1.41.95-3.35,1.43-5.82,1.43h-1.1s-1.57,0-1.57,0c-.3-.02-.55-.03-.74-.03"/><path class="cls-1" d="M28.8,42.08c-1.01-.04-1.84-.06-2.5-.06-3.67,0-5.5,1.16-5.5,3.48,0,1.71,1.06,2.57,3.18,2.57,3.21,0,4.82-1.95,4.82-5.84v-.15ZM32.58,50.52h-3.57l-.12-2.44c-1.11,1.81-3.02,2.72-5.71,2.72-2.11,0-3.69-.47-4.76-1.42-1.15-1.03-1.73-2.39-1.73-4.07,0-3.83,2.91-5.76,8.72-5.76.74,0,1.85.05,3.34.14v-.56c-.04-2.69-1.52-4.04-4.43-4.04-1.88,0-3.72.54-5.5,1.63l-.12-3.27c2.04-.82,4.08-1.22,6.12-1.22,3.71,0,6.06,1.23,7.05,3.68.38.95.56,2.75.56,5.39v2.67c0,1.92.05,4.1.15,6.54"/><path class="cls-1" d="M39.04,32.53l.15,2.94c1.23-2.13,3.21-3.2,5.94-3.2,2.52,0,4.29.68,5.32,2.05.89,1.19,1.34,3.18,1.34,5.99v10.2h-4.11v-9.1c0-1.98-.19-3.37-.56-4.17-.52-1.05-1.54-1.58-3.09-1.58-3.01,0-4.51,2.08-4.51,6.24v8.6h-4.14v-11.57c0-1.35-.04-3.31-.12-5.89l-.03-.53h3.81Z"/><path class="cls-1" d="M65.71,42.08c-1.01-.04-1.85-.06-2.5-.06-3.67,0-5.5,1.16-5.5,3.48,0,1.71,1.06,2.57,3.18,2.57,3.21,0,4.82-1.95,4.82-5.84v-.15ZM69.49,50.52h-3.57l-.12-2.44c-1.11,1.81-3.02,2.72-5.71,2.72-2.1,0-3.69-.47-4.76-1.42-1.15-1.03-1.72-2.39-1.72-4.07,0-3.83,2.91-5.76,8.72-5.76.73,0,1.85.05,3.33.14v-.56c-.04-2.69-1.52-4.04-4.43-4.04-1.88,0-3.72.54-5.5,1.63l-.12-3.27c2.04-.82,4.08-1.22,6.13-1.22,3.7,0,6.05,1.23,7.04,3.68.38.95.57,2.75.57,5.39v2.67c0,1.92.05,4.1.15,6.54"/><path class="cls-1" d="M71.66,50.04l.24-3.3c1.54.73,3.02,1.1,4.42,1.1,2.43,0,3.65-.77,3.65-2.32,0-.69-.34-1.24-1.04-1.63-.42-.26-1.15-.56-2.2-.92-1.05-.36-1.93-.73-2.65-1.13-1.6-.89-2.4-2.26-2.4-4.1s.81-3.32,2.44-4.31c1.31-.77,2.9-1.16,4.76-1.16,1.41,0,2.92.22,4.55.65l-.3,2.97c-1.33-.42-2.62-.63-3.87-.63-2.34,0-3.51.73-3.51,2.2,0,.71.39,1.25,1.16,1.6.43.22,1.24.52,2.41.92,1.29.43,2.2.83,2.74,1.19,1.38.89,2.08,2.22,2.08,3.98,0,1.94-.8,3.43-2.41,4.46-1.27.81-2.86,1.22-4.78,1.22-1.43,0-3.19-.26-5.29-.8Z"/><path class="cls-1" d="M94.62,35.11c-1.39,0-2.5.47-3.33,1.4-1.07,1.18-1.61,2.85-1.61,4.99,0,1.8.38,3.28,1.13,4.43.87,1.35,2.16,2.02,3.87,2.02s3.1-.71,3.99-2.14c.67-1.11,1.01-2.52,1.01-4.22,0-4.32-1.69-6.48-5.06-6.48ZM94.65,32.08c2.2,0,4.09.59,5.68,1.75,2.44,1.8,3.66,4.41,3.66,7.84,0,2.75-.84,4.98-2.52,6.68-1.73,1.74-3.97,2.61-6.75,2.61s-4.85-.83-6.57-2.5c-1.84-1.76-2.77-4.1-2.77-7.01,0-2.63.75-4.77,2.26-6.41,1.8-1.98,4.14-2.97,7.02-2.97"/><path class="cls-1" d="M109.64,32.53l.15,2.94c1.23-2.13,3.21-3.2,5.94-3.2,2.51,0,4.29.68,5.32,2.05.89,1.19,1.34,3.18,1.34,5.99v10.2h-4.11v-9.1c0-1.98-.19-3.37-.57-4.17-.51-1.05-1.54-1.58-3.08-1.58-3.01,0-4.51,2.08-4.51,6.24v8.6h-4.14v-11.57c0-1.35-.04-3.31-.12-5.89l-.03-.53h3.81Z"/><path class="cls-1" d="M129.63,50.52h-4.14v-17.99h4.14v17.99ZM129.66,29.89h-4.24v-3.98h4.24v3.98"/><path class="cls-1" d="M144.53,46.69l.21,3.33c-1.6.42-2.97.63-4.1.63-2.66,0-4.84-.82-6.56-2.47-1.67-1.6-2.5-3.83-2.5-6.69,0-3.41,1.23-5.9,3.68-7.49,1.62-1.05,3.43-1.58,5.41-1.58,1.05,0,2.27.18,3.68.53l-.33,3.18c-.97-.26-1.81-.39-2.52-.39-1.86,0-3.29.58-4.28,1.75-.89,1.03-1.34,2.38-1.34,4.04,0,1.82.53,3.25,1.61,4.28,1.01.95,2.36,1.43,4.07,1.43.83,0,1.82-.19,2.98-.55Z"/><path class="cls-1" d="M185.07,35.11c-1.39,0-2.5.47-3.33,1.4-1.07,1.18-1.61,2.85-1.61,4.99,0,1.8.38,3.28,1.13,4.43.87,1.35,2.16,2.02,3.87,2.02s3.1-.71,3.99-2.14c.67-1.11,1.01-2.52,1.01-4.22,0-4.32-1.69-6.48-5.06-6.48ZM185.1,32.08c2.2,0,4.1.59,5.68,1.75,2.44,1.8,3.66,4.41,3.66,7.84,0,2.75-.84,4.98-2.53,6.68-1.72,1.74-3.98,2.61-6.75,2.61s-4.85-.83-6.57-2.5c-1.84-1.76-2.76-4.1-2.76-7.01,0-2.63.75-4.77,2.26-6.41,1.8-1.98,4.14-2.97,7.01-2.97"/><path class="cls-1" d="M236.86,40.01c-.1-3.4-1.52-5.09-4.25-5.09s-4.21,1.7-4.61,5.09h8.86ZM239.42,46.41l.09,3.33c-1.92.84-3.93,1.26-6.03,1.26-2.97,0-5.27-.83-6.9-2.5-1.67-1.71-2.5-4.03-2.5-6.96s.78-5.09,2.35-6.84c1.56-1.75,3.65-2.62,6.27-2.62s4.75.94,6.18,2.82c1.25,1.63,1.87,3.63,1.87,6.01,0,.4-.04,1.03-.11,1.9h-12.57c.36,3.44,2.28,5.16,5.77,5.16,1.76,0,3.63-.52,5.59-1.56"/><path class="cls-1" d="M242.53,50.04l.24-3.3c1.54.73,3.01,1.1,4.42,1.1,2.43,0,3.65-.77,3.65-2.32,0-.69-.35-1.24-1.04-1.63-.42-.26-1.15-.56-2.2-.92-1.05-.36-1.93-.73-2.64-1.13-1.6-.89-2.41-2.26-2.41-4.1s.81-3.32,2.44-4.31c1.31-.77,2.9-1.16,4.76-1.16,1.41,0,2.92.22,4.55.65l-.3,2.97c-1.33-.42-2.62-.63-3.87-.63-2.34,0-3.51.73-3.51,2.2,0,.71.38,1.25,1.16,1.6.44.22,1.24.52,2.41.92,1.29.43,2.2.83,2.73,1.19,1.39.89,2.08,2.22,2.08,3.98,0,1.94-.8,3.43-2.41,4.46-1.27.81-2.86,1.22-4.78,1.22-1.42,0-3.19-.26-5.29-.8Z"/><path class="cls-1" d="M158.81,40.87c0-.64.52-1.16,1.16-1.16h8.39c.64,0,1.16.52,1.16,1.16v9.66h4.37v-24.62h-4.37v9.11c0,.64-.52,1.16-1.16,1.16h-8.39c-.64,0-1.16-.52-1.16-1.16v-9.11h-4.36v24.62h4.36v-9.66Z"/><path class="cls-1" d="M210.85,35.54c-1.09-2.18-2.91-3.27-5.45-3.27s-4.13,1.1-5.2,3.32l-.12-3.06h-3.87c.08,1.54.12,2.96.12,4.25v13.74h4.14v-8.71c0-1.35.1-2.33.3-2.95.73-2.12,1.78-3.18,3.65-3.18,1.14,0,1.84.54,2.33,1.61.29.65.44,1.97.44,3.95v9.28h4.11v-8c0-1.73.13-2.96.39-3.69.73-2.1,1.72-3.15,3.49-3.15,1.39,0,2.16.66,2.58,1.99.22.69.32,2.05.32,4.07v8.77h4.11v-10.53c0-2.36-.29-4.08-.86-5.17-.87-1.7-2.55-2.55-5.03-2.55-2.16,0-4.27,1.01-5.46,3.27Z"/></g></svg>